<?xml version="1.0" encoding="UTF-8"?>
<svg id="Layer_1" data-name="Layer 1" xmlns="http://www.w3.org/2000/svg" viewBox="0 0 1080 1080">
  <defs>
    <style>
      .cls-1 {
        fill: #000;
      }

      .cls-1, .cls-2, .cls-3 {
        stroke-width: 0px;
      }

      .cls-2 {
        fill: #f48067;
      }

      .cls-3 {
        fill: #fff;
      }
    </style>
  </defs>
  <rect class="cls-2" x="-10" y="-10" width="1100" height="1100"/>
  <g>
    <polygon class="cls-1" points="839.61 653.62 799.81 712.69 791.29 725.34 759.24 725.34 751.95 720.36 701.43 685.96 700.86 685.96 682.99 712.63 674.47 725.34 642.37 725.34 635.07 720.36 583.66 685.34 565.24 712.69 556.72 725.34 524.7 725.34 517.4 720.39 467.31 686.37 466.2 686.37 448.33 712.75 439.81 725.34 407.8 725.34 400.5 720.36 349.36 685.54 331.09 712.67 322.57 725.34 290.52 725.34 283.21 720.36 232.38 685.75 214.22 712.7 205.69 725.34 173.65 725.34 166.34 720.36 108.54 680.99 96 672.45 96 640.56 100.9 633.31 280.19 367.3 288.71 354.66 320.73 354.66 328.03 359.61 378.13 393.61 379.23 393.61 397.1 367.25 405.62 354.66 437.63 354.66 444.93 359.64 496.04 394.45 514.34 367.3 522.86 354.66 554.88 354.66 562.18 359.61 612.28 393.61 613.39 393.61 631.25 367.25 639.78 354.66 671.78 354.66 679.08 359.64 730.44 394.62 748.93 367.26 757.47 354.66 789.49 354.66 796.79 359.64 847.29 394.03 847.88 394.03 865.75 367.37 874.27 354.66 906.35 354.66 913.66 359.64 971.46 399.01 984 407.55 984 439.44 979.09 446.71 854.68 631.02 839.61 653.62"/>
    <g>
      <path class="cls-3" d="M486.6,422.71v7.96l-93.41,138.65h-7.96l-57.81-39.38h-24.71l-9.63,14.24h27.23l57.81,39.38v7.96l-70.79,105.14h-7.96l-57.81-39.38v-7.96l46.92-69.54v-28.49l-98.02,145.36h-7.96l-57.81-39.38v-7.96l179.29-266h7.96l57.39,38.96h25.13l26.39-38.96h7.96l57.81,39.38ZM328.26,492.25v28.49l40.63-60.32v-28.49l-40.63,60.32Z"/>
      <path class="cls-3" d="M537.18,539.19l26.04-12.26,58.19,39.63v7.96l-80.43,119.38h-7.96l-57.39-38.96h-25.13l-26.39,38.96h-7.96l-57.81-39.38v-7.96l179.29-266h7.96l57.39,38.96h25.13l26.39-38.96h7.96l57.81,39.38v7.96l-83.36,123.57h-7.96l-57.81-39.38v-7.96l31.42-46.5v-28.49l-126.51,187.66v28.49l59.93-88.74,1.2-17.38Z"/>
      <path class="cls-3" d="M955.33,422.71v7.96l-124.41,184.31h-7.96l-57.81-39.38v-36.86l-54.04,80.43v28.9l38.96-57.81h7.96l57.81,39.38v7.96l-39.79,59.06h-7.96l-57.81-39.38h-24.72l-26.39,39.38h-7.96l-57.81-39.38v-7.96l106.4-158.34h7.96l57.81,39.38h24.71l47.34-69.95v-28.49l-56.97,84.2h-7.96l-57.81-39.38v-7.96l57.81-85.45h7.96l57.81,39.38h24.71l26.39-39.38h7.96l57.81,39.38Z"/>
    </g>
  </g>
</svg>