<?xml version="1.0" encoding="UTF-8"?>
<svg id="Layer_1" data-name="Layer 1" xmlns="http://www.w3.org/2000/svg" version="1.1" viewBox="0 0 900 432">
  <defs>
    <style>
      .cls-1 {
        fill: #feede5;
        stroke-width: 0px;
      }
    </style>
  </defs>
  <polygon class="cls-1" points="249.52 34.82 250 42.11 248.92 43.91 223.34 87.9 221.55 91.01 221.19 91.01 221.31 91.61 220.23 93.4 212.1 107.51 210.31 110.49 203.02 110.97 201.23 109.9 189.15 102.84 189.03 102.84 185.33 109.3 183.65 112.29 176.24 112.77 174.57 111.81 162.25 104.52 158.43 111.09 156.63 114.08 149.34 114.56 147.55 113.6 135.59 106.55 135.36 106.55 131.65 112.88 129.98 115.87 122.56 116.35 120.89 115.4 108.58 108.22 104.87 114.68 103.08 117.67 95.79 118.14 93.99 117.19 81.92 110.02 78.09 116.47 76.42 119.46 69.01 120.06 67.33 118.98 53.47 110.85 50.48 109.06 50 101.77 50.96 100.09 87.9 36.49 89.69 33.51 96.98 32.91 98.77 33.98 110.73 41.04 110.97 40.92 114.67 34.7 116.35 31.59 123.76 31.12 125.43 32.19 137.75 39.36 141.45 32.91 143.25 29.8 150.54 29.32 152.33 30.4 164.29 37.33 164.52 37.33 168.23 31.12 169.9 28.01 177.32 27.53 178.99 28.6 191.3 35.78 195.13 29.2 196.92 26.21 204.21 25.74 205.89 26.81 217.96 33.86 218.2 33.86 221.79 27.53 223.58 24.42 230.87 23.94 232.67 25.02 246.53 33.03 249.52 34.82"/>
  <polygon class="cls-1" points="549.52 34.82 550 42.11 548.92 43.91 523.34 87.9 521.55 91.01 521.19 91.01 521.31 91.61 520.23 93.4 512.1 107.51 510.31 110.49 503.02 110.97 501.23 109.9 489.15 102.84 489.03 102.84 485.33 109.3 483.65 112.29 476.24 112.77 474.57 111.81 462.25 104.52 458.43 111.09 456.63 114.08 449.34 114.56 447.55 113.6 435.59 106.55 435.36 106.55 431.65 112.88 429.98 115.87 422.56 116.35 420.89 115.4 408.58 108.22 404.87 114.68 403.08 117.67 395.79 118.14 393.99 117.19 381.92 110.02 378.09 116.47 376.42 119.46 369.01 120.06 367.33 118.98 353.47 110.85 350.48 109.06 350 101.77 350.96 100.09 387.9 36.49 389.69 33.51 396.98 32.91 398.77 33.98 410.73 41.04 410.97 40.92 414.67 34.7 416.35 31.59 423.76 31.12 425.43 32.19 437.75 39.36 441.45 32.91 443.25 29.8 450.54 29.32 452.33 30.4 464.29 37.33 464.52 37.33 468.23 31.12 469.9 28.01 477.32 27.53 478.99 28.6 491.3 35.78 495.13 29.2 496.92 26.21 504.21 25.74 505.89 26.81 517.96 33.86 518.2 33.86 521.79 27.53 523.58 24.42 530.87 23.94 532.67 25.02 546.53 33.03 549.52 34.82"/>
  <polygon class="cls-1" points="349.52 178.82 350 186.11 348.92 187.91 323.34 231.9 321.55 235.01 321.19 235.01 321.31 235.61 320.23 237.4 312.1 251.51 310.31 254.49 303.02 254.97 301.23 253.9 289.15 246.84 289.03 246.84 285.33 253.3 283.65 256.29 276.24 256.77 274.57 255.81 262.25 248.52 258.43 255.09 256.63 258.08 249.34 258.56 247.55 257.6 235.59 250.55 235.36 250.55 231.65 256.88 229.98 259.87 222.56 260.35 220.89 259.4 208.58 252.22 204.87 258.68 203.08 261.67 195.79 262.14 193.99 261.19 181.92 254.02 178.09 260.47 176.42 263.46 169.01 264.06 167.33 262.98 153.47 254.85 150.48 253.06 150 245.77 150.96 244.09 187.9 180.49 189.69 177.51 196.98 176.91 198.77 177.98 210.73 185.04 210.97 184.92 214.67 178.7 216.35 175.59 223.76 175.12 225.43 176.19 237.75 183.36 241.45 176.91 243.25 173.8 250.54 173.32 252.33 174.4 264.29 181.33 264.52 181.33 268.23 175.12 269.9 172.01 277.32 171.53 278.99 172.6 291.3 179.78 295.13 173.2 296.92 170.21 304.21 169.74 305.89 170.81 317.96 177.86 318.2 177.86 321.79 171.53 323.58 168.42 330.87 167.94 332.67 169.02 346.53 177.03 349.52 178.82"/>
  <polygon class="cls-1" points="649.52 178.82 650 186.11 648.92 187.91 623.34 231.9 621.55 235.01 621.19 235.01 621.31 235.61 620.23 237.4 612.1 251.51 610.31 254.49 603.02 254.97 601.23 253.9 589.15 246.84 589.03 246.84 585.33 253.3 583.65 256.29 576.24 256.77 574.57 255.81 562.25 248.52 558.43 255.09 556.63 258.08 549.34 258.56 547.55 257.6 535.59 250.55 535.36 250.55 531.65 256.88 529.98 259.87 522.56 260.35 520.89 259.4 508.58 252.22 504.87 258.68 503.08 261.67 495.79 262.14 493.99 261.19 481.92 254.02 478.09 260.47 476.42 263.46 469.01 264.06 467.33 262.98 453.47 254.85 450.48 253.06 450 245.77 450.96 244.09 487.9 180.49 489.69 177.51 496.98 176.91 498.77 177.98 510.73 185.04 510.97 184.92 514.67 178.7 516.35 175.59 523.76 175.12 525.43 176.19 537.75 183.36 541.45 176.91 543.25 173.8 550.54 173.32 552.33 174.4 564.29 181.33 564.52 181.33 568.23 175.12 569.9 172.01 577.32 171.53 578.99 172.6 591.3 179.78 595.13 173.2 596.92 170.21 604.21 169.74 605.89 170.81 617.96 177.86 618.2 177.86 621.79 171.53 623.58 168.42 630.87 167.94 632.67 169.02 646.53 177.03 649.52 178.82"/>
  <polygon class="cls-1" points="949.52 178.82 950 186.11 948.92 187.91 923.34 231.9 921.55 235.01 921.19 235.01 921.31 235.61 920.23 237.4 912.1 251.51 910.31 254.49 903.02 254.97 901.23 253.9 889.15 246.84 889.03 246.84 885.33 253.3 883.65 256.29 876.24 256.77 874.57 255.81 862.25 248.52 858.43 255.09 856.63 258.08 849.34 258.56 847.55 257.6 835.59 250.55 835.36 250.55 831.65 256.88 829.98 259.87 822.56 260.35 820.89 259.4 808.58 252.22 804.87 258.68 803.08 261.67 795.79 262.14 793.99 261.19 781.92 254.02 778.09 260.47 776.42 263.46 769.01 264.06 767.33 262.98 753.47 254.85 750.48 253.06 750 245.77 750.96 244.09 787.9 180.49 789.69 177.51 796.98 176.91 798.77 177.98 810.73 185.04 810.97 184.92 814.67 178.7 816.35 175.59 823.76 175.12 825.43 176.19 837.75 183.36 841.45 176.91 843.25 173.8 850.54 173.32 852.33 174.4 864.29 181.33 864.52 181.33 868.23 175.12 869.9 172.01 877.32 171.53 878.99 172.6 891.3 179.78 895.13 173.2 896.92 170.21 904.21 169.74 905.89 170.81 917.96 177.86 918.2 177.86 921.79 171.53 923.58 168.42 930.87 167.94 932.67 169.02 946.53 177.03 949.52 178.82"/>
  <polygon class="cls-1" points="49.52 178.82 50 186.11 48.92 187.91 23.34 231.9 21.55 235.01 21.19 235.01 21.31 235.61 20.23 237.4 12.1 251.51 10.31 254.49 3.02 254.97 1.23 253.9 -10.85 246.84 -10.97 246.84 -14.67 253.3 -16.35 256.29 -23.76 256.77 -25.43 255.81 -37.75 248.52 -41.57 255.09 -43.37 258.08 -50.66 258.56 -52.45 257.6 -64.41 250.55 -64.64 250.55 -68.35 256.88 -70.02 259.87 -77.44 260.35 -79.11 259.4 -91.42 252.22 -95.13 258.68 -96.92 261.67 -104.21 262.14 -106.01 261.19 -118.08 254.02 -121.91 260.47 -123.58 263.46 -130.99 264.06 -132.67 262.98 -146.53 254.85 -149.52 253.06 -150 245.77 -149.04 244.09 -112.1 180.49 -110.31 177.51 -103.02 176.91 -101.23 177.98 -89.27 185.04 -89.03 184.92 -85.33 178.7 -83.65 175.59 -76.24 175.12 -74.57 176.19 -62.25 183.36 -58.55 176.91 -56.75 173.8 -49.46 173.32 -47.67 174.4 -35.71 181.33 -35.48 181.33 -31.77 175.12 -30.1 172.01 -22.68 171.53 -21.01 172.6 -8.7 179.78 -4.87 173.2 -3.08 170.21 4.21 169.74 5.89 170.81 17.96 177.86 18.2 177.86 21.79 171.53 23.58 168.42 30.87 167.94 32.67 169.02 46.53 177.03 49.52 178.82"/>
  <polygon class="cls-1" points="849.52 34.82 850 42.11 848.92 43.91 823.34 87.9 821.55 91.01 821.19 91.01 821.31 91.61 820.23 93.4 812.1 107.51 810.31 110.49 803.02 110.97 801.23 109.9 789.15 102.84 789.03 102.84 785.33 109.3 783.65 112.29 776.24 112.77 774.57 111.81 762.25 104.52 758.43 111.09 756.63 114.08 749.34 114.56 747.55 113.6 735.59 106.55 735.36 106.55 731.65 112.88 729.98 115.87 722.56 116.35 720.89 115.4 708.58 108.22 704.87 114.68 703.08 117.67 695.79 118.14 693.99 117.19 681.92 110.02 678.09 116.47 676.42 119.46 669.01 120.06 667.33 118.98 653.47 110.85 650.48 109.06 650 101.77 650.96 100.09 687.9 36.49 689.69 33.51 696.98 32.91 698.77 33.98 710.73 41.04 710.97 40.92 714.67 34.7 716.35 31.59 723.76 31.12 725.43 32.19 737.75 39.36 741.45 32.91 743.25 29.8 750.54 29.32 752.33 30.4 764.29 37.33 764.52 37.33 768.23 31.12 769.9 28.01 777.32 27.53 778.99 28.6 791.3 35.78 795.13 29.2 796.92 26.21 804.21 25.74 805.89 26.81 817.96 33.86 818.2 33.86 821.79 27.53 823.58 24.42 830.87 23.94 832.67 25.02 846.53 33.03 849.52 34.82"/>
  <polygon class="cls-1" points="449.52 322.82 450 330.11 448.92 331.91 423.34 375.9 421.55 379.01 421.19 379.01 421.31 379.61 420.23 381.4 412.1 395.51 410.31 398.49 403.02 398.97 401.23 397.9 389.15 390.84 389.03 390.84 385.33 397.3 383.65 400.29 376.24 400.77 374.57 399.81 362.25 392.52 358.43 399.09 356.63 402.08 349.34 402.56 347.55 401.6 335.59 394.55 335.36 394.55 331.65 400.88 329.98 403.87 322.56 404.35 320.89 403.4 308.58 396.22 304.87 402.68 303.08 405.67 295.79 406.14 293.99 405.19 281.92 398.02 278.09 404.47 276.42 407.46 269.01 408.06 267.33 406.98 253.47 398.85 250.48 397.06 250 389.77 250.96 388.09 287.9 324.49 289.69 321.51 296.98 320.91 298.77 321.98 310.73 329.04 310.97 328.92 314.67 322.7 316.35 319.59 323.76 319.12 325.43 320.19 337.75 327.36 341.45 320.91 343.25 317.8 350.54 317.32 352.33 318.4 364.29 325.33 364.52 325.33 368.23 319.12 369.9 316.01 377.32 315.53 378.99 316.6 391.3 323.78 395.13 317.2 396.92 314.21 404.21 313.74 405.89 314.81 417.96 321.86 418.2 321.86 421.79 315.53 423.58 312.42 430.87 311.94 432.67 313.02 446.53 321.03 449.52 322.82"/>
  <polygon class="cls-1" points="749.52 322.82 750 330.11 748.92 331.91 723.34 375.9 721.55 379.01 721.19 379.01 721.31 379.61 720.23 381.4 712.1 395.51 710.31 398.49 703.02 398.97 701.23 397.9 689.15 390.84 689.03 390.84 685.33 397.3 683.65 400.29 676.24 400.77 674.57 399.81 662.25 392.52 658.43 399.09 656.63 402.08 649.34 402.56 647.55 401.6 635.59 394.55 635.36 394.55 631.65 400.88 629.98 403.87 622.56 404.35 620.89 403.4 608.58 396.22 604.87 402.68 603.08 405.67 595.79 406.14 593.99 405.19 581.92 398.02 578.09 404.47 576.42 407.46 569.01 408.06 567.33 406.98 553.47 398.85 550.48 397.06 550 389.77 550.96 388.09 587.9 324.49 589.69 321.51 596.98 320.91 598.77 321.98 610.73 329.04 610.97 328.92 614.67 322.7 616.35 319.59 623.76 319.12 625.43 320.19 637.75 327.36 641.45 320.91 643.25 317.8 650.54 317.32 652.33 318.4 664.29 325.33 664.52 325.33 668.23 319.12 669.9 316.01 677.32 315.53 678.99 316.6 691.3 323.78 695.13 317.2 696.92 314.21 704.21 313.74 705.89 314.81 717.96 321.86 718.2 321.86 721.79 315.53 723.58 312.42 730.87 311.94 732.67 313.02 746.53 321.03 749.52 322.82"/>
  <polygon class="cls-1" points="1049.52 322.82 1050 330.11 1048.92 331.91 1023.34 375.9 1021.55 379.01 1021.19 379.01 1021.31 379.61 1020.23 381.4 1012.1 395.51 1010.31 398.49 1003.02 398.97 1001.23 397.9 989.15 390.84 989.03 390.84 985.33 397.3 983.65 400.29 976.24 400.77 974.57 399.81 962.25 392.52 958.43 399.09 956.63 402.08 949.34 402.56 947.55 401.6 935.59 394.55 935.36 394.55 931.65 400.88 929.98 403.87 922.56 404.35 920.89 403.4 908.58 396.22 904.87 402.68 903.08 405.67 895.79 406.14 893.99 405.19 881.92 398.02 878.09 404.47 876.42 407.46 869.01 408.06 867.33 406.98 853.47 398.85 850.48 397.06 850 389.77 850.96 388.09 887.9 324.49 889.69 321.51 896.98 320.91 898.77 321.98 910.73 329.04 910.97 328.92 914.67 322.7 916.35 319.59 923.76 319.12 925.43 320.19 937.75 327.36 941.45 320.91 943.25 317.8 950.54 317.32 952.33 318.4 964.29 325.33 964.52 325.33 968.23 319.12 969.9 316.01 977.32 315.53 978.99 316.6 991.3 323.78 995.13 317.2 996.92 314.21 1004.21 313.74 1005.89 314.81 1017.96 321.86 1018.2 321.86 1021.79 315.53 1023.58 312.42 1030.87 311.94 1032.67 313.02 1046.53 321.03 1049.52 322.82"/>
  <polygon class="cls-1" points="149.52 322.82 150 330.11 148.92 331.91 123.34 375.9 121.55 379.01 121.19 379.01 121.31 379.61 120.23 381.4 112.1 395.51 110.31 398.49 103.02 398.97 101.23 397.9 89.15 390.84 89.03 390.84 85.33 397.3 83.65 400.29 76.24 400.77 74.57 399.81 62.25 392.52 58.43 399.09 56.63 402.08 49.34 402.56 47.55 401.6 35.59 394.55 35.36 394.55 31.65 400.88 29.98 403.87 22.56 404.35 20.89 403.4 8.58 396.22 4.87 402.68 3.08 405.67 -4.21 406.14 -6.01 405.19 -18.08 398.02 -21.91 404.47 -23.58 407.46 -30.99 408.06 -32.67 406.98 -46.53 398.85 -49.52 397.06 -50 389.77 -49.04 388.09 -12.1 324.49 -10.31 321.51 -3.02 320.91 -1.23 321.98 10.73 329.04 10.97 328.92 14.67 322.7 16.35 319.59 23.76 319.12 25.43 320.19 37.75 327.36 41.45 320.91 43.25 317.8 50.54 317.32 52.33 318.4 64.29 325.33 64.52 325.33 68.23 319.12 69.9 316.01 77.32 315.53 78.99 316.6 91.3 323.78 95.13 317.2 96.92 314.21 104.21 313.74 105.89 314.81 117.96 321.86 118.2 321.86 121.79 315.53 123.58 312.42 130.87 311.94 132.67 313.02 146.53 321.03 149.52 322.82"/>
</svg>