<?xml version="1.0" encoding="UTF-8"?>
<svg id="Layer_2" data-name="Layer 2" xmlns="http://www.w3.org/2000/svg" viewBox="0 0 1080 450.83">
  <defs>
    <style>
      .cls-1 {
        fill: #000;
      }

      .cls-1, .cls-2 {
        stroke-width: 0px;
      }

      .cls-2 {
        fill: #f38067;
      }
    </style>
  </defs>
  <g id="Layer_1-2" data-name="Layer 1">
    <g>
      <polygon class="cls-1" points="904.4 363.6 855.99 435.44 845.62 450.83 806.65 450.83 797.77 444.77 736.34 402.93 735.64 402.93 713.91 435.37 703.54 450.83 664.5 450.83 655.63 444.77 593.1 402.18 570.7 435.44 560.34 450.83 521.39 450.83 512.52 444.8 451.59 403.43 450.24 403.43 428.51 435.52 418.14 450.83 379.22 450.83 370.34 444.77 308.14 402.42 285.92 435.42 275.56 450.83 236.58 450.83 227.69 444.77 165.87 402.67 143.78 435.45 133.41 450.83 94.44 450.83 85.54 444.77 15.25 396.89 0 386.51 0 347.72 5.96 338.89 224.01 15.37 234.38 0 273.32 0 282.2 6.02 343.13 47.38 344.47 47.38 366.2 15.31 376.57 0 415.5 0 424.37 6.05 486.54 48.39 508.79 15.37 519.16 0 558.1 0 566.98 6.02 627.91 47.38 629.25 47.38 650.98 15.31 661.35 0 700.28 0 709.15 6.05 771.62 48.6 794.11 15.33 804.49 0 843.44 0 852.31 6.05 913.73 47.88 914.45 47.88 936.18 15.45 946.54 0 985.56 0 994.46 6.05 1064.75 53.94 1080 64.32 1080 103.11 1074.03 111.95 922.72 336.12 904.4 363.6"/>
      <g>
        <path class="cls-2" d="M475.05,82.76v9.68l-113.61,168.63h-9.68l-70.31-47.89h-30.06l-11.72,17.32h33.12l70.31,47.89v9.68l-86.1,127.88h-9.68l-70.31-47.89v-9.68l57.06-84.57v-34.64l-119.22,176.79h-9.68l-70.31-47.89v-9.68L252.92,34.87h9.68l69.8,47.38h30.57l32.1-47.38h9.68l70.31,47.89ZM282.47,167.33v34.64l49.42-73.36v-34.64l-49.42,73.36Z"/>
        <path class="cls-2" d="M536.56,224.43l31.67-14.92,70.77,48.2v9.68l-97.82,145.2h-9.68l-69.8-47.38h-30.57l-32.1,47.38h-9.68l-70.31-47.89v-9.68L537.1,31.52h9.68l69.8,47.38h30.57l32.1-47.38h9.68l70.31,47.89v9.68l-101.38,150.29h-9.68l-70.31-47.89v-9.68l38.21-56.55v-34.64l-153.86,228.24v34.64l72.89-107.93,1.46-21.14Z"/>
        <path class="cls-2" d="M1045.13,82.76v9.68l-151.31,224.17h-9.68l-70.31-47.89v-44.83l-65.72,97.82v35.15l47.38-70.31h9.68l70.31,47.89v9.68l-48.4,71.84h-9.68l-70.31-47.89h-30.06l-32.1,47.89h-9.68l-70.31-47.89v-9.68l129.41-192.58h9.68l70.31,47.89h30.06l57.57-85.08v-34.64l-69.29,102.4h-9.68l-70.31-47.89v-9.68l70.31-103.93h9.68l70.31,47.89h30.06l32.1-47.89h9.68l70.31,47.89Z"/>
      </g>
    </g>
  </g>
</svg>